<svg id="svg" version="1.1" xmlns="http://www.w3.org/2000/svg" xmlns:xlink="http://www.w3.org/1999/xlink" width="400" height="400" viewBox="0, 0, 400,400"><g id="svgg"><path id="path0" d="M70.120 173.299 L 34.845 208.600 35.077 230.200 L 35.309 251.800 36.909 256.400 C 39.831 264.799,45.218 276.309,49.968 284.300 L 51.691 287.200 114.046 287.200 L 176.400 287.200 176.400 248.099 L 176.400 208.998 140.898 173.498 L 105.396 137.998 70.120 173.299 M295.600 157.248 C 282.005 159.075,269.028 161.056,263.457 162.156 L 256.715 163.488 233.557 186.643 L 210.400 209.797 210.400 248.499 L 210.400 287.200 273.187 287.200 L 335.974 287.200 338.146 283.500 C 342.557 275.984,346.837 266.998,350.023 258.565 L 351.547 254.529 351.630 232.022 L 351.712 209.515 325.357 183.157 C 310.862 168.661,298.822 156.822,298.601 156.849 C 298.381 156.877,297.030 157.056,295.600 157.248 M112.000 176.063 C 118.805 179.234,122.467 186.835,120.635 193.987 C 116.667 209.473,94.533 209.473,90.565 193.987 C 87.393 181.605,100.454 170.683,112.000 176.063 M287.817 176.991 C 295.400 180.701,298.794 189.873,295.322 197.272 C 288.508 211.792,266.918 208.149,265.717 192.276 C 264.821 180.421,277.253 171.822,287.817 176.991 M119.200 247.800 L 119.200 272.800 105.600 272.800 L 92.000 272.800 92.000 247.800 L 92.000 222.800 105.600 222.800 L 119.200 222.800 119.200 247.800 M294.800 248.600 L 294.800 273.600 281.200 273.600 L 267.600 273.600 267.600 248.600 L 267.600 223.600 281.200 223.600 L 294.800 223.600 294.800 248.600 M76.708 232.500 L 76.600 241.000 63.100 241.105 L 49.600 241.211 49.600 232.605 L 49.600 224.000 63.208 224.000 L 76.816 224.000 76.708 232.500 M162.000 232.600 L 162.000 241.200 148.400 241.200 L 134.800 241.200 134.800 232.600 L 134.800 224.000 148.400 224.000 L 162.000 224.000 162.000 232.600 M252.000 233.400 L 252.000 242.000 238.400 242.000 L 224.800 242.000 224.800 233.400 L 224.800 224.800 238.400 224.800 L 252.000 224.800 252.000 233.400 M337.200 233.400 L 337.200 242.000 323.600 242.000 L 310.000 242.000 310.000 233.400 L 310.000 224.800 323.600 224.800 L 337.200 224.800 337.200 233.400 M76.800 257.800 L 76.800 266.400 63.200 266.400 L 49.600 266.400 49.600 257.800 L 49.600 249.200 63.200 249.200 L 76.800 249.200 76.800 257.800 M162.000 257.800 L 162.000 266.400 148.400 266.400 L 134.800 266.400 134.800 257.800 L 134.800 249.200 148.400 249.200 L 162.000 249.200 162.000 257.800 M252.000 258.600 L 252.000 267.200 238.400 267.200 L 224.800 267.200 224.800 258.600 L 224.800 250.000 238.400 250.000 L 252.000 250.000 252.000 258.600 M337.200 258.600 L 337.200 267.200 323.600 267.200 L 310.000 267.200 310.000 258.600 L 310.000 250.000 323.600 250.000 L 337.200 250.000 337.200 258.600 " stroke="none" fill="#fafafb" fill-rule="evenodd"></path><path id="path1" d="M210.800 60.502 C 208.063 61.658,204.688 63.920,198.951 68.439 C 187.805 77.221,185.513 77.943,173.000 76.616 C 162.914 75.546,163.991 75.161,157.724 82.066 C 146.638 94.279,142.366 95.855,129.400 92.519 C 120.673 90.272,121.477 90.037,118.526 95.702 C 113.068 106.177,105.038 110.481,90.800 110.559 L 83.400 110.600 82.885 113.000 C 80.738 123.016,79.736 125.512,76.614 128.637 C 72.986 132.267,68.823 133.758,60.506 134.406 C 50.783 135.163,50.975 135.028,50.172 141.659 C 48.956 151.679,48.147 152.858,37.587 159.987 C 33.634 162.655,30.399 164.965,30.398 165.119 C 30.397 165.274,29.962 167.830,29.431 170.800 C 28.498 176.013,27.488 185.128,27.014 192.600 L 26.786 196.200 66.094 156.900 L 105.401 117.600 135.801 147.991 L 166.200 178.381 182.800 172.445 C 249.248 148.682,262.662 145.532,320.918 140.008 C 337.187 138.465,350.785 133.938,360.000 126.997 L 361.400 125.943 359.800 126.271 C 353.018 127.665,345.937 126.333,339.010 122.361 L 335.551 120.377 331.676 124.019 C 323.039 132.134,321.750 132.598,308.000 132.530 C 289.798 132.440,286.662 131.775,280.457 126.686 C 272.822 120.422,272.510 120.415,263.554 126.259 C 236.055 144.204,225.775 144.129,202.800 125.811 C 195.909 120.317,195.539 120.153,191.379 120.743 C 185.147 121.627,182.445 120.824,180.799 117.599 C 177.478 111.087,185.586 104.839,196.193 105.736 C 200.911 106.134,202.896 107.216,211.510 114.078 C 229.557 128.454,233.624 128.412,256.200 113.617 C 272.992 102.611,274.526 102.577,286.775 112.935 C 292.442 117.728,292.014 117.608,304.427 117.883 C 317.187 118.167,316.182 118.480,322.900 112.120 C 331.747 103.744,333.962 103.104,341.087 106.866 C 350.111 111.630,351.187 112.116,353.079 112.284 C 356.821 112.616,370.931 108.251,371.367 106.627 C 372.027 104.162,372.065 96.100,371.428 93.400 C 367.758 77.828,355.827 72.721,344.800 82.003 C 341.266 84.977,337.221 87.669,334.217 89.044 C 321.190 95.007,262.100 90.587,241.518 82.108 C 235.507 79.633,233.838 78.291,228.541 71.677 C 219.029 59.802,216.390 58.140,210.800 60.502 M217.200 72.184 C 228.831 78.209,225.148 95.291,212.200 95.378 C 198.256 95.473,195.131 75.892,208.397 71.551 C 210.122 70.986,215.656 71.385,217.200 72.184 M355.868 86.859 C 360.006 87.901,362.076 91.884,359.997 94.804 C 358.031 97.566,352.390 98.520,348.788 96.700 C 341.237 92.885,347.152 84.664,355.868 86.859 M296.501 191.000 C 296.505 191.880,296.587 192.193,296.683 191.695 C 296.779 191.198,296.775 190.478,296.675 190.095 C 296.575 189.713,296.496 190.120,296.501 191.000 M351.770 221.600 C 351.770 226.330,351.828 228.265,351.898 225.900 C 351.969 223.535,351.969 219.665,351.898 217.300 C 351.828 214.935,351.770 216.870,351.770 221.600 M34.969 228.400 C 34.969 232.910,35.027 234.755,35.098 232.500 C 35.170 230.245,35.170 226.555,35.098 224.300 C 35.027 222.045,34.969 223.890,34.969 228.400 M76.491 232.295 L 76.400 240.789 62.900 240.900 L 49.400 241.011 62.913 241.106 C 73.575 241.180,76.466 241.092,76.621 240.689 C 76.729 240.408,76.764 236.493,76.700 231.989 L 76.582 223.800 76.491 232.295 M141.274 241.099 C 144.945 241.165,151.065 241.165,154.874 241.099 C 158.683 241.034,155.680 240.980,148.200 240.980 C 140.720 240.979,137.603 241.033,141.274 241.099 M231.674 241.899 C 235.345 241.965,241.465 241.965,245.274 241.899 C 249.083 241.834,246.080 241.780,238.600 241.780 C 231.120 241.779,228.003 241.833,231.674 241.899 M316.874 241.899 C 320.545 241.965,326.665 241.965,330.474 241.899 C 334.283 241.834,331.280 241.780,323.800 241.780 C 316.320 241.779,313.203 241.833,316.874 241.899 M76.570 258.000 C 76.570 262.730,76.628 264.665,76.698 262.300 C 76.769 259.935,76.769 256.065,76.698 253.700 C 76.628 251.335,76.570 253.270,76.570 258.000 " stroke="none" fill="#8bcb54" fill-rule="evenodd"></path><path id="path2" d="M325.400 183.200 C 339.919 197.720,351.888 209.600,351.998 209.600 C 352.108 209.600,340.319 197.720,325.800 183.200 C 311.281 168.680,299.312 156.800,299.202 156.800 C 299.092 156.800,310.881 168.680,325.400 183.200 M233.199 186.700 L 210.200 209.800 233.300 186.801 C 246.005 174.152,256.400 163.757,256.400 163.701 C 256.400 163.420,254.577 165.227,233.199 186.700 M62.067 301.970 C 62.975 304.493,79.193 321.347,86.800 327.674 C 158.095 386.972,264.526 377.049,322.725 305.678 L 326.051 301.600 193.992 301.600 C 113.214 301.600,61.985 301.744,62.067 301.970 M249.847 325.010 C 262.722 325.072,263.035 325.143,264.729 328.409 C 266.521 331.866,265.076 336.457,261.760 337.842 C 258.571 339.175,235.275 338.398,232.693 336.873 C 226.876 333.437,230.601 323.361,237.200 324.677 C 237.970 324.831,243.661 324.981,249.847 325.010 M154.353 325.975 C 157.774 327.806,157.591 333.394,154.062 334.903 C 152.258 335.673,129.691 335.816,127.902 335.068 C 124.066 333.466,123.878 327.761,127.600 325.900 C 129.327 325.036,152.722 325.102,154.353 325.975 M179.600 326.590 C 181.910 326.594,185.372 326.439,187.293 326.244 L 190.785 325.891 192.359 327.465 C 194.308 329.414,194.812 331.446,193.849 333.467 C 191.649 338.080,166.970 338.003,164.862 333.376 C 162.872 329.010,165.959 325.744,171.600 326.246 C 173.690 326.432,177.290 326.587,179.600 326.590 M218.388 326.994 C 222.211 328.971,222.458 334.276,218.841 336.692 C 217.116 337.844,206.480 338.075,204.412 337.006 C 200.589 335.029,200.342 329.724,203.959 327.308 C 205.684 326.156,216.320 325.925,218.388 326.994 " stroke="none" fill="#5cabf3" fill-rule="evenodd"></path><path id="path3" d="M183.470 18.442 C 72.195 24.508,-6.962 129.010,16.628 238.703 C 37.006 333.457,130.608 395.684,226.400 378.161 C 333.897 358.496,399.791 248.907,366.865 144.553 L 365.714 140.906 368.809 138.668 C 378.734 131.489,382.904 124.485,385.463 110.694 C 390.351 84.347,376.129 61.905,355.200 62.941 C 347.558 63.319,342.984 64.871,337.984 68.782 C 336.563 69.893,334.483 71.522,333.363 72.402 C 332.243 73.281,330.387 74.514,329.240 75.142 L 327.154 76.283 324.677 73.687 C 288.607 35.886,236.615 15.545,183.470 18.442 M212.400 33.777 C 247.080 37.903,280.574 52.898,304.800 75.144 L 307.000 77.164 304.532 77.182 C 290.561 77.285,261.669 73.392,250.923 69.958 C 244.330 67.852,243.855 67.510,239.023 61.401 C 228.847 48.536,224.032 45.437,214.200 45.424 C 206.261 45.413,201.629 47.662,188.862 57.722 C 181.831 63.262,182.649 63.076,170.966 61.783 C 158.596 60.414,157.094 61.128,145.070 74.100 C 139.397 80.219,139.967 80.038,132.338 78.142 C 118.133 74.611,112.053 76.738,106.575 87.154 C 102.494 94.915,100.989 95.674,89.000 96.021 C 73.895 96.458,70.637 98.913,68.204 111.695 C 66.752 119.318,66.770 119.303,58.562 119.992 C 52.543 120.497,49.132 121.051,47.281 121.824 L 45.956 122.377 47.645 119.289 C 74.776 69.660,125.003 37.660,183.000 33.050 C 187.662 32.680,207.247 33.164,212.400 33.777 M217.800 60.356 C 219.772 61.266,223.879 65.515,228.714 71.649 C 230.730 74.207,233.004 76.847,233.767 77.517 C 242.797 85.446,275.528 91.351,310.600 91.379 C 331.073 91.396,334.080 90.550,344.925 81.723 C 359.575 69.798,374.112 82.479,371.745 105.119 L 371.491 107.556 366.939 109.171 C 353.843 113.818,353.239 113.770,341.200 107.107 C 334.334 103.306,331.856 103.930,323.911 111.458 C 315.951 119.001,315.951 119.001,300.127 118.068 C 291.886 117.582,292.169 117.696,285.625 112.219 C 275.150 103.451,272.053 103.380,259.600 111.620 C 233.867 128.648,229.988 128.944,212.735 115.200 C 201.973 106.627,200.157 105.779,193.231 106.097 C 182.658 106.582,176.929 112.938,181.822 118.753 C 183.577 120.839,185.885 121.431,189.733 120.783 C 195.605 119.795,195.392 119.716,202.800 125.610 C 225.935 144.018,236.108 144.026,264.190 125.659 C 271.980 120.564,273.224 120.492,278.410 124.835 C 286.710 131.787,290.542 132.668,311.018 132.336 C 321.940 132.159,323.621 131.459,331.600 123.774 L 335.400 120.115 339.482 122.396 C 346.613 126.381,351.952 127.472,358.375 126.255 C 362.688 125.438,362.691 125.470,358.577 128.135 C 347.964 135.010,336.068 138.867,321.400 140.188 C 262.523 145.492,249.961 148.552,171.058 176.815 L 166.315 178.513 135.958 148.158 L 105.600 117.802 66.155 157.201 L 26.711 196.600 26.960 191.200 C 27.383 182.017,29.712 165.230,30.676 164.413 C 30.854 164.262,33.880 162.235,37.400 159.909 C 47.280 153.379,48.758 151.434,49.643 143.800 C 50.682 134.832,50.436 135.071,59.362 134.367 C 74.060 133.207,79.368 129.061,81.843 116.806 C 82.355 114.273,82.873 111.795,82.994 111.300 C 83.213 110.411,83.295 110.400,90.024 110.400 C 103.880 110.400,112.301 106.459,117.200 97.680 C 121.668 89.673,120.625 90.143,129.266 92.245 C 142.880 95.555,144.893 94.887,156.275 83.282 L 163.950 75.456 170.075 76.129 C 185.429 77.814,187.722 77.180,199.113 68.093 C 209.263 59.996,213.352 58.303,217.800 60.356 M208.133 71.916 C 195.337 76.490,198.471 95.179,212.036 95.196 C 224.990 95.213,228.702 77.535,216.845 72.290 C 214.283 71.157,210.688 71.003,208.133 71.916 M348.969 87.537 C 343.091 90.283,345.165 96.763,352.151 97.478 C 359.719 98.253,364.008 90.825,357.747 87.785 C 355.486 86.687,351.057 86.562,348.969 87.537 M141.099 173.299 L 176.400 208.598 176.400 247.897 L 176.400 287.195 113.973 287.298 L 51.546 287.400 48.767 282.542 C 43.715 273.710,37.942 260.915,35.645 253.458 C 34.830 250.815,34.800 249.956,34.800 229.659 L 34.800 208.602 70.099 173.301 C 89.514 153.885,105.488 138.000,105.598 138.000 C 105.708 138.000,121.684 153.885,141.099 173.299 M353.410 150.900 C 357.212 162.905,359.780 178.033,360.592 193.200 L 360.838 197.800 339.435 176.417 C 327.663 164.657,318.070 154.996,318.117 154.949 C 318.164 154.902,321.262 154.573,325.001 154.218 C 334.235 153.342,348.736 149.851,352.283 147.651 C 352.328 147.623,352.835 149.085,353.410 150.900 M325.751 183.151 L 352.101 209.503 351.907 232.251 L 351.714 255.000 349.215 261.200 C 346.376 268.245,342.099 277.083,338.616 283.104 L 336.247 287.200 273.323 287.200 L 210.400 287.200 210.400 248.299 L 210.400 209.397 233.500 186.322 L 256.600 163.246 262.800 162.047 C 272.188 160.232,294.387 156.930,297.801 156.842 C 299.401 156.800,299.427 156.824,325.751 183.151 M211.298 188.102 L 196.000 203.404 196.000 245.302 L 196.000 287.200 193.400 287.200 L 190.800 287.200 190.800 244.904 L 190.800 202.609 184.358 196.158 L 177.915 189.706 181.458 188.414 C 183.406 187.702,191.930 184.700,200.400 181.742 C 208.870 178.784,218.050 175.571,220.800 174.603 C 223.550 173.635,225.979 172.833,226.198 172.821 C 226.417 172.810,219.712 179.686,211.298 188.102 M101.610 175.416 C 90.194 178.616,86.513 193.138,95.067 201.228 C 101.195 207.024,110.005 207.024,116.133 201.228 C 127.436 190.538,116.569 171.222,101.610 175.416 M277.210 176.241 C 261.012 180.594,263.000 204.704,279.686 206.262 C 295.589 207.747,302.745 186.692,289.275 178.048 C 285.741 175.781,281.363 175.125,277.210 176.241 M92.000 247.800 L 92.000 272.800 105.600 272.800 L 119.200 272.800 119.200 247.800 L 119.200 222.800 105.600 222.800 L 92.000 222.800 92.000 247.800 M267.600 248.600 L 267.600 273.600 281.000 273.600 L 294.400 273.600 294.400 248.600 L 294.400 223.600 281.000 223.600 L 267.600 223.600 267.600 248.600 M49.600 232.400 L 49.600 240.800 63.000 240.800 L 76.400 240.800 76.400 232.400 L 76.400 224.000 63.000 224.000 L 49.600 224.000 49.600 232.400 M134.800 232.400 L 134.800 240.800 148.200 240.800 L 161.600 240.800 161.600 232.400 L 161.600 224.000 148.200 224.000 L 134.800 224.000 134.800 232.400 M225.200 233.200 L 225.200 241.600 238.600 241.600 L 252.000 241.600 252.000 233.200 L 252.000 224.800 238.600 224.800 L 225.200 224.800 225.200 233.200 M310.400 233.200 L 310.400 241.600 323.800 241.600 L 337.200 241.600 337.200 233.200 L 337.200 224.800 323.800 224.800 L 310.400 224.800 310.400 233.200 M49.600 258.000 L 49.600 266.400 63.000 266.400 L 76.400 266.400 76.400 258.000 L 76.400 249.600 63.000 249.600 L 49.600 249.600 49.600 258.000 M134.800 258.000 L 134.800 266.400 148.200 266.400 L 161.600 266.400 161.600 258.000 L 161.600 249.600 148.200 249.600 L 134.800 249.600 134.800 258.000 M225.200 258.800 L 225.200 267.200 238.600 267.200 L 252.000 267.200 252.000 258.800 L 252.000 250.400 238.600 250.400 L 225.200 250.400 225.200 258.800 M310.400 258.800 L 310.400 267.200 323.800 267.200 L 337.200 267.200 337.200 258.800 L 337.200 250.400 323.800 250.400 L 310.400 250.400 310.400 258.800 M326.000 301.511 C 326.000 302.031,321.806 307.127,317.079 312.348 C 255.172 380.737,147.704 385.090,80.168 321.944 C 73.295 315.518,61.600 302.617,61.600 301.460 C 61.600 301.317,121.090 301.200,193.800 301.200 C 266.510 301.200,326.000 301.340,326.000 301.511 M233.083 325.609 C 228.792 327.949,229.014 335.193,233.434 337.040 C 237.435 338.712,259.908 338.864,262.539 337.237 C 266.270 334.932,266.132 328.379,262.304 325.974 C 261.073 325.200,260.495 325.161,252.000 325.277 C 247.050 325.345,241.110 325.261,238.800 325.091 C 234.971 324.809,234.466 324.855,233.083 325.609 M139.400 325.575 C 133.020 325.699,127.478 325.957,127.085 326.148 C 124.845 327.240,124.505 331.785,126.513 333.793 L 127.826 335.106 135.812 335.406 C 154.166 336.094,159.235 334.352,156.121 328.428 C 154.463 325.274,154.511 325.282,139.400 325.575 M167.379 326.603 C 164.685 327.972,163.714 332.296,165.664 334.245 C 168.577 337.158,190.007 337.255,192.893 334.368 C 196.642 330.619,192.533 325.469,186.562 326.432 C 183.798 326.878,174.601 326.739,170.200 326.184 C 169.183 326.056,168.155 326.208,167.379 326.603 M205.400 326.822 C 200.969 328.252,200.178 334.241,204.106 336.618 C 206.007 337.767,216.759 337.788,218.646 336.646 C 222.095 334.558,222.095 329.442,218.646 327.354 C 217.220 326.491,207.621 326.105,205.400 326.822 " stroke="none" fill="#0c243c" fill-rule="evenodd"></path><path id="path4" d="M164.505 75.887 C 165.114 75.979,166.014 75.977,166.505 75.882 C 166.997 75.787,166.500 75.711,165.400 75.714 C 164.300 75.717,163.897 75.795,164.505 75.887 M178.300 77.093 C 179.235 77.177,180.765 77.177,181.700 77.093 C 182.635 77.009,181.870 76.940,180.000 76.940 C 178.130 76.940,177.365 77.009,178.300 77.093 M364.800 81.000 C 365.546 81.770,366.247 82.400,366.357 82.400 C 366.467 82.400,365.946 81.770,365.200 81.000 C 364.454 80.230,363.753 79.600,363.643 79.600 C 363.533 79.600,364.054 80.230,364.800 81.000 M224.101 83.400 C 224.105 84.280,224.187 84.593,224.283 84.095 C 224.379 83.598,224.375 82.878,224.275 82.495 C 224.175 82.113,224.096 82.520,224.101 83.400 M153.188 86.700 L 150.600 89.400 153.300 86.812 C 155.808 84.407,156.183 84.000,155.888 84.000 C 155.827 84.000,154.612 85.215,153.188 86.700 M352.300 86.682 C 352.795 86.778,353.605 86.778,354.100 86.682 C 354.595 86.587,354.190 86.509,353.200 86.509 C 352.210 86.509,351.805 86.587,352.300 86.682 M291.505 91.083 C 292.002 91.179,292.722 91.175,293.105 91.075 C 293.487 90.975,293.080 90.896,292.200 90.901 C 291.320 90.905,291.007 90.987,291.505 91.083 M298.100 91.487 C 298.705 91.578,299.695 91.578,300.300 91.487 C 300.905 91.395,300.410 91.320,299.200 91.320 C 297.990 91.320,297.495 91.395,298.100 91.487 M321.505 91.483 C 322.002 91.579,322.722 91.575,323.105 91.475 C 323.487 91.375,323.080 91.296,322.200 91.301 C 321.320 91.305,321.007 91.387,321.505 91.483 M310.112 91.895 C 311.164 91.977,312.784 91.976,313.712 91.892 C 314.640 91.808,313.780 91.741,311.800 91.742 C 309.820 91.743,309.060 91.812,310.112 91.895 M210.900 95.487 C 211.505 95.578,212.495 95.578,213.100 95.487 C 213.705 95.395,213.210 95.320,212.000 95.320 C 210.790 95.320,210.295 95.395,210.900 95.487 M272.105 105.487 C 272.714 105.579,273.614 105.577,274.105 105.482 C 274.597 105.387,274.100 105.311,273.000 105.314 C 271.900 105.317,271.497 105.395,272.105 105.487 M192.900 105.891 C 193.725 105.978,195.075 105.978,195.900 105.891 C 196.725 105.805,196.050 105.734,194.400 105.734 C 192.750 105.734,192.075 105.805,192.900 105.891 M323.389 111.700 L 320.600 114.600 323.500 111.811 C 325.095 110.277,326.400 108.972,326.400 108.911 C 326.400 108.617,325.980 109.006,323.389 111.700 M90.900 110.691 C 91.725 110.778,93.075 110.778,93.900 110.691 C 94.725 110.605,94.050 110.534,92.400 110.534 C 90.750 110.534,90.075 110.605,90.900 110.691 M65.999 157.100 L 26.600 196.600 66.100 157.201 C 102.821 120.573,105.779 117.600,105.499 117.600 C 105.444 117.600,87.669 135.375,65.999 157.100 M295.900 117.882 C 296.395 117.978,297.205 117.978,297.700 117.882 C 298.195 117.787,297.790 117.709,296.800 117.709 C 295.810 117.709,295.405 117.787,295.900 117.882 M305.700 118.297 C 307.405 118.372,310.195 118.372,311.900 118.297 C 313.605 118.222,312.210 118.161,308.800 118.161 C 305.390 118.161,303.995 118.222,305.700 118.297 M332.589 122.900 L 329.800 125.800 332.700 123.011 C 334.295 121.477,335.600 120.172,335.600 120.111 C 335.600 119.817,335.180 120.206,332.589 122.900 M271.505 121.883 C 272.002 121.979,272.722 121.975,273.105 121.875 C 273.487 121.775,273.080 121.696,272.200 121.701 C 271.320 121.705,271.007 121.787,271.505 121.883 M76.378 128.700 L 75.000 130.200 76.500 128.822 C 77.896 127.538,78.184 127.200,77.878 127.200 C 77.812 127.200,77.137 127.875,76.378 128.700 M296.105 132.287 C 296.714 132.379,297.614 132.377,298.105 132.282 C 298.597 132.187,298.100 132.111,297.000 132.114 C 295.900 132.117,295.497 132.195,296.105 132.287 M306.700 132.697 C 308.295 132.773,310.905 132.773,312.500 132.697 C 314.095 132.621,312.790 132.559,309.600 132.559 C 306.410 132.559,305.105 132.621,306.700 132.697 M61.700 134.276 C 62.085 134.376,62.715 134.376,63.100 134.276 C 63.485 134.175,63.170 134.093,62.400 134.093 C 61.630 134.093,61.315 134.175,61.700 134.276 M140.800 173.400 C 160.269 192.870,176.288 208.800,176.398 208.800 C 176.508 208.800,160.669 192.870,141.200 173.400 C 121.731 153.930,105.712 138.000,105.602 138.000 C 105.492 138.000,121.331 153.930,140.800 173.400 M323.700 139.876 C 324.085 139.976,324.715 139.976,325.100 139.876 C 325.485 139.775,325.170 139.693,324.400 139.693 C 323.630 139.693,323.315 139.775,323.700 139.876 M319.300 140.276 C 319.685 140.376,320.315 140.376,320.700 140.276 C 321.085 140.175,320.770 140.093,320.000 140.093 C 319.230 140.093,318.915 140.175,319.300 140.276 M270.175 180.100 L 269.000 181.400 270.300 180.225 C 271.015 179.579,271.600 178.994,271.600 178.925 C 271.600 178.616,271.270 178.888,270.175 180.100 M27.293 185.600 C 27.293 186.370,27.375 186.685,27.476 186.300 C 27.576 185.915,27.576 185.285,27.476 184.900 C 27.375 184.515,27.293 184.830,27.293 185.600 M90.093 190.400 C 90.093 191.170,90.175 191.485,90.276 191.100 C 90.376 190.715,90.376 190.085,90.276 189.700 C 90.175 189.315,90.093 189.630,90.093 190.400 M265.714 191.000 C 265.717 192.100,265.795 192.503,265.887 191.895 C 265.979 191.286,265.977 190.386,265.882 189.895 C 265.787 189.403,265.711 189.900,265.714 191.000 M26.920 191.600 C 26.920 192.810,26.995 193.305,27.087 192.700 C 27.178 192.095,27.178 191.105,27.087 190.500 C 26.995 189.895,26.920 190.390,26.920 191.600 M93.600 200.125 C 93.600 200.194,94.185 200.779,94.900 201.425 L 96.200 202.600 95.025 201.300 C 93.930 200.088,93.600 199.816,93.600 200.125 M116.175 201.300 L 115.000 202.600 116.300 201.425 C 117.512 200.330,117.784 200.000,117.475 200.000 C 117.406 200.000,116.821 200.585,116.175 201.300 M294.588 248.600 C 294.588 262.460,294.639 268.072,294.700 261.071 C 294.761 254.070,294.761 242.730,294.700 235.871 C 294.638 229.012,294.588 234.740,294.588 248.600 M161.770 232.400 C 161.770 237.130,161.828 239.065,161.898 236.700 C 161.969 234.335,161.969 230.465,161.898 228.100 C 161.828 225.735,161.770 227.670,161.770 232.400 M224.970 233.200 C 224.970 237.930,225.028 239.865,225.098 237.500 C 225.169 235.135,225.169 231.265,225.098 228.900 C 225.028 226.535,224.970 228.470,224.970 233.200 M310.170 233.200 C 310.170 237.930,310.228 239.865,310.298 237.500 C 310.369 235.135,310.369 231.265,310.298 228.900 C 310.228 226.535,310.170 228.470,310.170 233.200 M351.771 238.800 C 351.771 243.750,351.828 245.775,351.899 243.300 C 351.969 240.825,351.969 236.775,351.899 234.300 C 351.828 231.825,351.771 233.850,351.771 238.800 M34.967 243.800 C 34.967 247.980,35.026 249.636,35.098 247.479 C 35.171 245.323,35.170 241.903,35.098 239.879 C 35.025 237.856,34.966 239.620,34.967 243.800 M56.074 249.499 C 59.745 249.565,65.865 249.565,69.674 249.499 C 73.483 249.434,70.480 249.380,63.000 249.380 C 55.520 249.379,52.403 249.433,56.074 249.499 M148.092 249.500 L 161.584 249.611 161.700 258.105 L 161.817 266.600 161.908 257.900 L 162.000 249.200 148.300 249.294 L 134.600 249.389 148.092 249.500 M224.892 258.700 L 224.983 267.400 225.100 258.905 L 225.216 250.411 238.708 250.300 L 252.200 250.189 238.500 250.094 L 224.800 250.000 224.892 258.700 M310.092 258.700 L 310.183 267.400 310.300 258.905 L 310.416 250.411 323.908 250.300 L 337.400 250.189 323.700 250.094 L 310.000 250.000 310.092 258.700 M61.600 301.500 C 61.600 301.771,150.345 301.770,278.400 301.498 C 304.690 301.442,266.665 301.352,193.900 301.298 C 121.135 301.244,61.600 301.335,61.600 301.500 M311.591 317.900 L 308.200 321.400 311.700 318.009 C 314.951 314.859,315.382 314.400,315.091 314.400 C 315.031 314.400,313.456 315.975,311.591 317.900 M257.305 325.087 C 257.914 325.179,258.814 325.177,259.305 325.082 C 259.797 324.987,259.300 324.911,258.200 324.914 C 257.100 324.917,256.697 324.995,257.305 325.087 M131.700 325.497 C 133.405 325.572,136.195 325.572,137.900 325.497 C 139.605 325.422,138.210 325.361,134.800 325.361 C 131.390 325.361,129.995 325.422,131.700 325.497 M244.900 325.494 C 245.945 325.576,247.655 325.576,248.700 325.494 C 249.745 325.412,248.890 325.344,246.800 325.344 C 244.710 325.344,243.855 325.412,244.900 325.494 M124.893 330.400 C 124.893 331.170,124.975 331.485,125.076 331.100 C 125.176 330.715,125.176 330.085,125.076 329.700 C 124.975 329.315,124.893 329.630,124.893 330.400 M229.701 331.000 C 229.705 331.880,229.787 332.193,229.883 331.695 C 229.979 331.198,229.975 330.478,229.875 330.095 C 229.775 329.713,229.696 330.120,229.701 331.000 M265.309 331.600 C 265.309 332.590,265.387 332.995,265.482 332.500 C 265.578 332.005,265.578 331.195,265.482 330.700 C 265.387 330.205,265.309 330.610,265.309 331.600 M194.093 331.600 C 194.093 332.370,194.175 332.685,194.276 332.300 C 194.376 331.915,194.376 331.285,194.276 330.900 C 194.175 330.515,194.093 330.830,194.093 331.600 M130.512 335.495 C 131.564 335.577,133.184 335.576,134.112 335.492 C 135.040 335.408,134.180 335.341,132.200 335.342 C 130.220 335.343,129.460 335.412,130.512 335.495 M177.100 336.696 C 178.475 336.774,180.725 336.774,182.100 336.696 C 183.475 336.618,182.350 336.554,179.600 336.554 C 176.850 336.554,175.725 336.618,177.100 336.696 M239.505 338.283 C 240.002 338.379,240.722 338.375,241.105 338.275 C 241.487 338.175,241.080 338.096,240.200 338.101 C 239.320 338.105,239.007 338.187,239.505 338.283 M258.105 338.287 C 258.714 338.379,259.614 338.377,260.105 338.282 C 260.597 338.187,260.100 338.111,259.000 338.114 C 257.900 338.117,257.497 338.195,258.105 338.287 M180.900 366.276 C 181.285 366.376,181.915 366.376,182.300 366.276 C 182.685 366.175,182.370 366.093,181.600 366.093 C 180.830 366.093,180.515 366.175,180.900 366.276 M205.300 366.276 C 205.685 366.376,206.315 366.376,206.700 366.276 C 207.085 366.175,206.770 366.093,206.000 366.093 C 205.230 366.093,204.915 366.175,205.300 366.276 M190.080 366.698 C 191.994 366.771,195.234 366.771,197.280 366.698 C 199.326 366.626,197.760 366.566,193.800 366.565 C 189.840 366.565,188.166 366.624,190.080 366.698 " stroke="none" fill="#446c55" fill-rule="evenodd"></path></g></svg>